<?xml version="1.0" encoding="utf-8"?>
<!-- Generator: Adobe Illustrator 27.5.0, SVG Export Plug-In . SVG Version: 6.00 Build 0)  -->
<svg version="1.1" id="katman_1" xmlns="http://www.w3.org/2000/svg" xmlns:xlink="http://www.w3.org/1999/xlink" x="0px" y="0px"
	 viewBox="0 0 5000 5000" style="enable-background:new 0 0 5000 5000;" xml:space="preserve" fill="#BDBDBD">
<g>
	<g>
		<path d="M2563.969,3960.787l-1611.59-0.27c-7.796-0.316-16.375-0.855-23.14-5.129l-2.231-1.488
			c-60.531-38.769-38.589-137.379,31.008-150.512c12.031-2.269,25.598-1.218,37.817-1.269l315.933-0.145l-0.41-1968.16
			c0.188-669.555,457.504-1195.18,1127.32-1241.479c96.731-3.97,194.852,0.539,290.09,18.632
			c490.797,93.262,852.27,498.024,939.528,980.43l12.109,77.438c6.273,34.57,5.934,71.328,6.078,106.355l-0.512,2026.785
			l247.828,0.145c34.399,0.051,75.977-4.442,109.52,2.004c58.375,11.254,127.906,157.543-27,157.078L2563.969,3960.787z
			 M2385.305,1451.158l1.032,447.226l-436.567-0.32l0.067,238.883l435.75,1.371l0.414,1270.953l165.519-0.023
			c19.652,0.023,44.313,3.297,63.231-0.098l-0.485-1236.527c0.145-11.446-0.711-24.231,1.633-35.367l431.691,0.484l-0.418-240.047
			l-433.175,0.57l0.047-447.187L2385.305,1451.158z M2385.305,1451.158"/>
		<path d="M4126.469,4408.345l-3695.914-0.148c-38.968-0.047-79.929,2.297-118.711-1c-82.547-6.981-108.32-151.833,21.903-146.29
			l291.226,1.614c42.16,0.047,40.5,12.57,55.641-27.665c27.207-72.312,126.34-92.43,192.887-95.094l3166.031-0.851
			c101.148,0,257.156,0.195,286.062,122.094c32.883,3.125,67.477,1.488,100.559,1.539l246.535-0.27
			c12.352,0.05,26.512-0.855,38.012,4.32l2.929,1.442c71.705,33.885,47.708,127.539-26.417,139.453
			c-18.723,3.027-39.743,1.098-58.762,1.074L4126.469,4408.345z M4126.469,4408.345"/>
	</g>
</g>
</svg>
